{"accessors":[{"bufferView":2,"componentType":5126,"count":9938,"max":[2757.7255859375,308.789306640625,109.095703125],"min":[2504.365234375,-0.00103759765625,-30.455078125],"type":"VEC3"},{"bufferView":2,"byteOffset":119256,"componentType":5126,"count":9938,"max":[0.9999874830245972,1,1],"min":[-0.9999878406524658,-0.9993915557861328,-1],"type":"VEC3"},{"bufferView":1,"componentType":5126,"count":9938,"max":[0.99853515625,0.9982767105102539],"min":[0.0027751922607421875,0.00244140625],"type":"VEC2"},{"bufferView":0,"componentType":5125,"count":44256,"type":"SCALAR"}],"asset":{"extras":{"author":"noyou (https://sketchfab.com/zsm123)","license":"CC-BY-4.0 (http://creativecommons.org/licenses/by/4.0/)","source":"https://sketchfab.com/3d-models/ancient-chinese-generals-bee0c0a3b6fa482dafe75726fb86b1eb","title":"Ancient Chinese generals"},"generator":"Sketchfab-12.65.0","version":"2.0"},"bufferViews":[{"buffer":0,"byteLength":177024,"name":"floatBufferViews","target":34963},{"buffer":0,"byteLength":79504,"byteOffset":177024,"byteStride":8,"name":"floatBufferViews","target":34962},{"buffer":0,"byteLength":238512,"byteOffset":256528,"byteStride":12,"name":"floatBufferViews","target":34962}],"buffers":[{"byteLength":495040,"uri":"data:application/octet-stream;base64,"}],"extensionsRequired":["KHR_materials_pbrSpecularGlossiness"],"extensionsUsed":["KHR_materials_pbrSpecularGlossiness"],"images":[{"uri":"data:application/octet-stream;base64,"},{"uri":"data:application/octet-stream;base64,"}],"materials":[{"doubleSided":true,"extensions":{"KHR_materials_pbrSpecularGlossiness":{"diffuseFactor":[1,1,1,1],"diffuseTexture":{"index":0},"glossinessFactor":0,"specularFactor":[0,0,0],"specularGlossinessTexture":{"index":1}}},"name":"sanguo_7"}],"meshes":[{"name":"blade_ZhongHe_SiBian:Mesh_0002_sanguo_7_0","primitives":[{"attributes":{"NORMAL":1,"POSITION":0,"TEXCOORD_0":2},"indices":3,"material":0,"mode":4}]}],"nodes":[{"children":[1],"matrix":[1,0,0,0,0,2.220446049250313e-16,-1,0,0,1,2.220446049250313e-16,0,0,0,0,1],"name":"Sketchfab_model"},{"children":[2],"matrix":[1,0,0,0,0,0,1,0,0,-1,0,0,0,0,0,1],"name":"sanguo_7.fbx"},{"children":[3],"name":"RootNode"},{"children":[4],"name":"blade_ZhongHe_SiBian:group1"},{"children":[5],"matrix":[1,0,0,0,0,1,0,0,0,0,1,0,-2652.100830078125,7.275957614183426e-12,-9.094947017729282e-13,1],"name":"blade_ZhongHe_SiBian:Mesh_0002"},{"mesh":0,"name":"blade_ZhongHe_SiBian:Mesh_0002_sanguo_7_0"}],"samplers":[{"magFilter":9729,"minFilter":9987,"wrapS":10497,"wrapT":10497}],"scene":0,"scenes":[{"name":"Sketchfab_Scene","nodes":[0]}],"textures":[{"sampler":0,"source":0},{"sampler":0,"source":1}]}